<?xml version="1.0" encoding="utf-8"?>
<!-- Generator: Adobe Illustrator 26.5.0, SVG Export Plug-In . SVG Version: 6.00 Build 0)  -->
<svg version="1.1" id="Layer_1" xmlns="http://www.w3.org/2000/svg" xmlns:xlink="http://www.w3.org/1999/xlink" x="0px" y="0px"
	 viewBox="0 0 283.46 283.46" style="enable-background:new 0 0 283.46 283.46;" xml:space="preserve">
<style type="text/css">
	.st0{fill:#FFFFFF;}
</style>
<g>
	<path class="st0" d="M141.73,12.9C70.69,12.9,12.9,70.69,12.9,141.73s57.79,128.83,128.83,128.83
		c71.04,0,128.83-57.79,128.83-128.83S212.77,12.9,141.73,12.9z M141.73,262.56c-66.63,0-120.83-54.2-120.83-120.83
		S75.1,20.9,141.73,20.9c66.63,0,120.83,54.2,120.83,120.83S208.36,262.56,141.73,262.56z"/>
	<path class="st0" d="M147.59,76.47c-7.02,1.23-13.16,4.18-17.8,9.78c-4.68,5.66-6.67,12.39-7.08,19.53
		c-0.39,6.85-0.25,13.72-0.34,20.59c-0.01,0.7,0,1.39,0,2.28c-7.42,0-14.57,0-21.72,0c0,8.46,0,16.73,0,25.11
		c7.26,0,14.36,0,21.76,0c0,20.34,0,40.44-0.01,60.6c9.04,0,17.92,0,26.97,0c0-20.21,0-40.31,0-60.58c6.84,0,13.5,0,20.32,0
		c1.27-8.43,2.52-16.72,3.81-25.25c-8.14,0-16.06,0-23.79,0c0-6.52-0.37-12.85,0.11-19.12c0.43-5.57,4.57-9.44,10.11-10.23
		c3.14-0.44,6.36-0.36,9.54-0.47c1.67-0.06,3.34-0.01,5.01-0.01c0-7.26,0-14.27,0-21.33c-1.14-0.15-2.14-0.28-3.15-0.42
		C163.43,75.88,155.52,75.07,147.59,76.47z"/>
</g>
</svg>
