<?xml version="1.0" encoding="utf-8"?>
<!-- Generator: Adobe Illustrator 26.5.0, SVG Export Plug-In . SVG Version: 6.00 Build 0)  -->
<svg version="1.1" id="Layer_1" xmlns="http://www.w3.org/2000/svg" xmlns:xlink="http://www.w3.org/1999/xlink" x="0px" y="0px"
	 viewBox="0 0 859.68 613.54" style="enable-background:new 0 0 859.68 613.54;" xml:space="preserve">
<style type="text/css">
	.st0{filter:url(#a);}
	.st1{fill-rule:evenodd;clip-rule:evenodd;}
	.st2{fill-rule:evenodd;clip-rule:evenodd;fill:#FFFFFF;}
	.st3{filter:url(#c);}
	.st4{fill-rule:evenodd;clip-rule:evenodd;fill:#00252E;}
	.st5{fill-rule:evenodd;clip-rule:evenodd;fill:#E1E8EE;}
	.st6{fill-rule:evenodd;clip-rule:evenodd;fill:#D8D8D8;}
	.st7{fill-rule:evenodd;clip-rule:evenodd;fill:url(#SVGID_1_);}
	.st8{fill-rule:evenodd;clip-rule:evenodd;fill:#A7B9C8;}
	.st9{fill-rule:evenodd;clip-rule:evenodd;fill:url(#SVGID_00000023998248243562805950000004752931255002780343_);}
	.st10{fill-rule:evenodd;clip-rule:evenodd;fill:url(#SVGID_00000118398542317495807820000009912427273211515323_);}
	.st11{filter:url(#h);}
	.st12{filter:url(#j);}
	.st13{fill-rule:evenodd;clip-rule:evenodd;fill:url(#SVGID_00000011710920498208590410000007849096784784877196_);}
	.st14{fill-rule:evenodd;clip-rule:evenodd;fill:url(#SVGID_00000137827588350647032420000006729273229329960349_);}
	.st15{fill-rule:evenodd;clip-rule:evenodd;fill:url(#SVGID_00000016796449048358322400000013368484308173594240_);}
	.st16{fill-rule:evenodd;clip-rule:evenodd;fill:url(#SVGID_00000000935068928347449110000009585341213043784858_);}
	.st17{fill-rule:evenodd;clip-rule:evenodd;fill:url(#SVGID_00000122678141702303783480000010569357472749231233_);}
	.st18{fill-rule:evenodd;clip-rule:evenodd;fill:url(#SVGID_00000036251313359011576540000011419773803583366534_);}
	.st19{fill-rule:evenodd;clip-rule:evenodd;fill:url(#SVGID_00000122717730097004003210000017300299016129621646_);}
	.st20{fill-rule:evenodd;clip-rule:evenodd;fill:url(#SVGID_00000065752654660915015510000003576235885866430377_);}
</style>
<filter  filterUnits="objectBoundingBox" height="148.1%" id="j" width="108.2%" x="-4.1%" y="-24.1%">
	<feOffset  in="SourceAlpha" result="shadowOffsetOuter1"></feOffset>
	<feGaussianBlur  in="shadowOffsetOuter1" result="shadowBlurOuter1" stdDeviation="3"></feGaussianBlur>
	<feColorMatrix  in="shadowBlurOuter1" values="0 0 0 0 0 0 0 0 0 0.145098039 0 0 0 0 0.180392157 0 0 0 0.181838768 0">
		</feColorMatrix>
</filter>
<filter  filterUnits="objectBoundingBox" height="105.1%" id="h" width="108.2%" x="-4.1%" y="-2.6%">
	<feOffset  in="SourceAlpha" result="shadowOffsetOuter1"></feOffset>
	<feGaussianBlur  in="shadowOffsetOuter1" result="shadowBlurOuter1" stdDeviation="3"></feGaussianBlur>
	<feColorMatrix  in="shadowBlurOuter1" values="0 0 0 0 0 0 0 0 0 0.145098039 0 0 0 0 0.180392157 0 0 0 0.181838768 0">
		</feColorMatrix>
</filter>
<filter  filterUnits="objectBoundingBox" height="147.9%" id="c" width="103.2%" x="-1.6%" y="-24%">
	<feOffset  in="SourceAlpha" result="shadowOffsetOuter1"></feOffset>
	<feGaussianBlur  in="shadowOffsetOuter1" result="shadowBlurOuter1" stdDeviation="3.5"></feGaussianBlur>
	<feColorMatrix  in="shadowBlurOuter1" values="0 0 0 0 0 0 0 0 0 0.145098039 0 0 0 0 0.180392157 0 0 0 0.181838768 0">
		</feColorMatrix>
</filter>
<filter  filterUnits="objectBoundingBox" height="105.1%" id="a" width="103.2%" x="-1.6%" y="-2.6%">
	<feOffset  in="SourceAlpha" result="shadowOffsetOuter1"></feOffset>
	<feGaussianBlur  in="shadowOffsetOuter1" result="shadowBlurOuter1" stdDeviation="3.5"></feGaussianBlur>
	<feColorMatrix  in="shadowBlurOuter1" values="0 0 0 0 0 0 0 0 0 0.145098039 0 0 0 0 0.180392157 0 0 0 0.181838768 0">
		</feColorMatrix>
</filter>
<g>
	<g transform="translate(7 7)">
		<g class="st0">
			<path id="b_00000094620430197330854400000001116263407513934218_" class="st1" d="M15.17-1h768.98c9.23,0,16.72,7.48,16.72,16.72
				v467.84c0,9.23-7.48,16.72-16.72,16.72H15.17c-9.23,0-16.72-7.48-16.72-16.72V15.72C-1.55,6.48,5.94-1,15.17-1z"/>
		</g>
		<g>
			<path id="b_00000103954560125630330880000008942443850133875844_" class="st2" d="M15.17-1h768.98c9.23,0,16.72,7.48,16.72,16.72
				v467.84c0,9.23-7.48,16.72-16.72,16.72H15.17c-9.23,0-16.72-7.48-16.72-16.72V15.72C-1.55,6.48,5.94-1,15.17-1z"/>
		</g>
		<g class="st3">
			<path id="d_00000066479916360304420460000015279421187560824967_" class="st1" d="M15.17-1h768.99c9.23,0,16.72,7.48,16.72,16.72
				v36.75H-1.55V15.72C-1.55,6.48,5.94-1,15.17-1z"/>
		</g>
		<g>
			<path id="d_00000097481052171190166480000012505781565923078035_" class="st4" d="M15.17-1h768.99c9.23,0,16.72,7.48,16.72,16.72
				v36.75H-1.55V15.72C-1.55,6.48,5.94-1,15.17-1z"/>
		</g>
		<path class="st5" d="M62.81,15.71h158.81c2.31,0,4.18,1.87,4.18,4.18v11.69c0,2.31-1.87,4.18-4.18,4.18H62.81
			c-2.31,0-4.18-1.87-4.18-4.18V19.89C58.63,17.58,60.5,15.71,62.81,15.71z"/>
		<g transform="translate(591.874 15.064)">
			<path class="st6" d="M130.42,2.32h23.41c0.92,0,1.67,0.75,1.67,1.67v0c0,0.92-0.75,1.67-1.67,1.67h-23.41
				c-0.92,0-1.67-0.75-1.67-1.67v0C128.75,3.06,129.5,2.32,130.42,2.32z"/>
			<path class="st6" d="M130.42,9h23.41c0.92,0,1.67,0.75,1.67,1.67v0c0,0.92-0.75,1.67-1.67,1.67h-23.41
				c-0.92,0-1.67-0.75-1.67-1.67v0C128.75,9.75,129.5,9,130.42,9z"/>
			<path class="st6" d="M130.42,15.68h23.41c0.92,0,1.67,0.75,1.67,1.67v0c0,0.92-0.75,1.67-1.67,1.67h-23.41
				c-0.92,0-1.67-0.75-1.67-1.67v0C128.75,16.43,129.5,15.68,130.42,15.68z"/>
		</g>
		<g transform="translate(49.323 94.492)">
			
				<linearGradient id="SVGID_1_" gradientUnits="userSpaceOnUse" x1="302.1871" y1="403.8217" x2="302.9336" y2="402.0919" gradientTransform="matrix(65.764 0 0 -65.734 -19849.1582 26545.5293)">
				<stop  offset="0" style="stop-color:#FAD961"/>
				<stop  offset="1" style="stop-color:#FF52C1"/>
			</linearGradient>
			<ellipse class="st7" cx="49.43" cy="59.91" rx="40.12" ry="40.1"/>
			<g transform="translate(104.126 8.217)">
				<path class="st5" d="M34.74,21.61h91.11c1.38,0,2.51,1.12,2.51,2.51v8.35c0,1.38-1.12,2.51-2.51,2.51H34.74
					c-1.38,0-2.51-1.12-2.51-2.51v-8.35C32.23,22.73,33.36,21.61,34.74,21.61z"/>
				<path class="st5" d="M34.74,48.35h329.33c1.38,0,2.51,1.12,2.51,2.51v1.67c0,1.38-1.12,2.51-2.51,2.51H34.74
					c-1.38,0-2.51-1.12-2.51-2.51v-1.67C32.23,49.47,33.36,48.35,34.74,48.35z"/>
				<path class="st5" d="M34.74,61.71H336.2c1.38,0,2.51,1.12,2.51,2.51v1.67c0,1.38-1.12,2.51-2.51,2.51H34.74
					c-1.38,0-2.51-1.12-2.51-2.51v-1.67C32.23,62.84,33.36,61.71,34.74,61.71z"/>
				<path class="st5" d="M34.74,75.08h273.6c1.38,0,2.51,1.12,2.51,2.51v1.67c0,1.38-1.12,2.51-2.51,2.51H34.74
					c-1.38,0-2.51-1.12-2.51-2.51v-1.67C32.23,76.2,33.36,75.08,34.74,75.08z"/>
			</g>
			<g transform="translate(411.024 24.65)">
				<ellipse class="st8" cx="109.83" cy="35.26" rx="10.03" ry="10.03"/>
				<ellipse class="st8" cx="163.32" cy="35.26" rx="10.03" ry="10.03"/>
				<ellipse class="st8" cx="136.58" cy="35.26" rx="10.03" ry="10.03"/>
				<ellipse class="st8" cx="190.07" cy="35.26" rx="10.03" ry="10.03"/>
				<ellipse class="st8" cx="216.82" cy="35.26" rx="10.03" ry="10.03"/>
			</g>
		</g>
		<g transform="translate(49.323 187.614)">
			
				<linearGradient id="SVGID_00000161593021493319111020000015865375637223084457_" gradientUnits="userSpaceOnUse" x1="302.2165" y1="310.2781" x2="302.2165" y2="309.058" gradientTransform="matrix(61.654 0 0 -61.626 -18585.9336 19161.5059)">
				<stop  offset="0" style="stop-color:#00C7FA"/>
				<stop  offset="1" style="stop-color:#007DFA"/>
			</linearGradient>
			
				<ellipse style="fill-rule:evenodd;clip-rule:evenodd;fill:url(#SVGID_00000161593021493319111020000015865375637223084457_);" cx="46.92" cy="77.9" rx="37.61" ry="37.6"/>
			<g transform="translate(102.07 6.162)">
				<path class="st5" d="M34.29,41.66h91.11c1.38,0,2.51,1.12,2.51,2.51v8.35c0,1.38-1.12,2.51-2.51,2.51H34.29
					c-1.38,0-2.51-1.12-2.51-2.51v-8.35C31.78,42.78,32.9,41.66,34.29,41.66z"/>
				<path class="st5" d="M34.29,68.4h329.33c1.38,0,2.51,1.12,2.51,2.51v1.67c0,1.38-1.12,2.51-2.51,2.51H34.29
					c-1.38,0-2.51-1.12-2.51-2.51V70.9C31.78,69.52,32.9,68.4,34.29,68.4z"/>
				<path class="st5" d="M34.29,81.76h301.46c1.38,0,2.51,1.12,2.51,2.51v1.67c0,1.38-1.12,2.51-2.51,2.51H34.29
					c-1.38,0-2.51-1.12-2.51-2.51v-1.67C31.78,82.89,32.9,81.76,34.29,81.76z"/>
				<path class="st5" d="M34.29,95.13h273.6c1.38,0,2.51,1.12,2.51,2.51v1.67c0,1.38-1.12,2.51-2.51,2.51H34.29
					c-1.38,0-2.51-1.12-2.51-2.51v-1.67C31.78,96.25,32.9,95.13,34.29,95.13z"/>
			</g>
			<g transform="translate(408.969 22.596)">
				<ellipse class="st8" cx="109.37" cy="55.3" rx="10.03" ry="10.03"/>
				<ellipse class="st8" cx="162.87" cy="55.3" rx="10.03" ry="10.03"/>
				<ellipse class="st8" cx="136.12" cy="55.3" rx="10.03" ry="10.03"/>
			</g>
		</g>
		<g transform="translate(49.323 285.53)">
			
				<linearGradient id="SVGID_00000061457029572526375250000017184488090760384420_" gradientUnits="userSpaceOnUse" x1="301.8991" y1="211.9789" x2="302.6462" y2="210.6216" gradientTransform="matrix(61.654 0 0 -61.626 -18585.9336 13127.334)">
				<stop  offset="0" style="stop-color:#FF52C1"/>
				<stop  offset="1" style="stop-color:#9952FF"/>
			</linearGradient>
			
				<ellipse style="fill-rule:evenodd;clip-rule:evenodd;fill:url(#SVGID_00000061457029572526375250000017184488090760384420_);" cx="46.92" cy="99.46" rx="37.61" ry="37.6"/>
			<g transform="translate(102.07 6.162)">
				<path class="st5" d="M34.29,63.22h91.11c1.38,0,2.51,1.12,2.51,2.51v8.35c0,1.38-1.12,2.51-2.51,2.51H34.29
					c-1.38,0-2.51-1.12-2.51-2.51v-8.35C31.78,64.34,32.9,63.22,34.29,63.22z"/>
				<path class="st5" d="M34.29,89.95h329.33c1.38,0,2.51,1.12,2.51,2.51v1.67c0,1.38-1.12,2.51-2.51,2.51H34.29
					c-1.38,0-2.51-1.12-2.51-2.51v-1.67C31.78,91.07,32.9,89.95,34.29,89.95z"/>
				<path class="st5" d="M34.29,103.32h301.46c1.38,0,2.51,1.12,2.51,2.51v1.67c0,1.38-1.12,2.51-2.51,2.51H34.29
					c-1.38,0-2.51-1.12-2.51-2.51v-1.67C31.78,104.44,32.9,103.32,34.29,103.32z"/>
				<path class="st5" d="M34.29,116.69h273.6c1.38,0,2.51,1.12,2.51,2.51v1.67c0,1.38-1.12,2.51-2.51,2.51H34.29
					c-1.38,0-2.51-1.12-2.51-2.51v-1.67C31.78,117.81,32.9,116.69,34.29,116.69z"/>
			</g>
			<g transform="translate(408.969 22.596)">
				<ellipse class="st8" cx="109.37" cy="76.86" rx="10.03" ry="10.03"/>
				<ellipse class="st8" cx="162.87" cy="76.86" rx="10.03" ry="10.03"/>
				<ellipse class="st8" cx="136.12" cy="76.86" rx="10.03" ry="10.03"/>
				<ellipse class="st8" cx="189.62" cy="76.86" rx="10.03" ry="10.03"/>
			</g>
		</g>
	</g>
	<g transform="translate(483.787 149.422)">
		<g class="st11">
			<path id="i_00000134221454943956830120000011543730222474679698_" class="st1" d="M117.68,30.35h238.94
				c7.88,0,14.27,6.39,14.27,14.26v399.23c0,7.88-6.39,14.27-14.27,14.27H117.68c-7.88,0-14.26-6.39-14.26-14.27V44.62
				C103.42,36.74,109.8,30.35,117.68,30.35z"/>
		</g>
		<g>
			<path id="i_00000020371374393873805830000003752392934241756555_" class="st2" d="M117.68,30.35h238.94
				c7.88,0,14.27,6.39,14.27,14.26v399.23c0,7.88-6.39,14.27-14.27,14.27H117.68c-7.88,0-14.26-6.39-14.26-14.27V44.62
				C103.42,36.74,109.8,30.35,117.68,30.35z"/>
		</g>
	</g>
	<g transform="translate(483.787 149.422)">
		<g class="st12">
			<path id="k_00000035506401467237875380000015797624217966740141_" class="st1" d="M117.68,30.35h238.94
				c7.88,0,14.27,6.39,14.27,14.26v31.36H103.42V44.62C103.42,36.74,109.8,30.35,117.68,30.35z"/>
		</g>
		<g>
			<path id="k_00000099638924419990786260000015554276233411176373_" class="st4" d="M117.68,30.35h238.94
				c7.88,0,14.27,6.39,14.27,14.26v31.36H103.42V44.62C103.42,36.74,109.8,30.35,117.68,30.35z"/>
		</g>
	</g>
	<g transform="translate(505.8 162.277)">
		<path class="st5" d="M111.83,33.18h79.8c1.97,0,3.57,1.6,3.57,3.57v9.98c0,1.97-1.6,3.57-3.57,3.57h-79.8
			c-1.97,0-3.57-1.6-3.57-3.57v-9.98C108.26,34.78,109.86,33.18,111.83,33.18z"/>
		<g transform="translate(155.111 1.169)">
			<path class="st6" d="M143.84,33.44h19.97c0.79,0,1.43,0.64,1.43,1.43l0,0c0,0.79-0.64,1.43-1.43,1.43h-19.97
				c-0.79,0-1.43-0.64-1.43-1.43l0,0C142.41,34.08,143.05,33.44,143.84,33.44z"/>
			<path class="st6" d="M143.84,39.15h19.97c0.79,0,1.43,0.64,1.43,1.43l0,0c0,0.79-0.64,1.43-1.43,1.43h-19.97
				c-0.79,0-1.43-0.64-1.43-1.43l0,0C142.41,39.78,143.05,39.15,143.84,39.15z"/>
			<path class="st6" d="M143.84,44.85h19.97c0.79,0,1.43,0.64,1.43,1.43l0,0c0,0.79-0.64,1.43-1.43,1.43h-19.97
				c-0.79,0-1.43-0.64-1.43-1.43l0,0C142.41,45.49,143.05,44.85,143.84,44.85z"/>
		</g>
	</g>
	<g transform="translate(505.709 223.372)">
		
			<linearGradient id="SVGID_00000164472778137669617490000017599108803158986652_" gradientUnits="userSpaceOnUse" x1="-154.2391" y1="287.2867" x2="-153.4926" y2="285.5569" gradientTransform="matrix(20.552 0 0 -20.542 3282.7166 5942.1118)">
			<stop  offset="0" style="stop-color:#FAD961"/>
			<stop  offset="1" style="stop-color:#FF52C1"/>
		</linearGradient>
		
			<ellipse style="fill-rule:evenodd;clip-rule:evenodd;fill:url(#SVGID_00000164472778137669617490000017599108803158986652_);" cx="120.78" cy="59.17" rx="12.54" ry="12.53"/>
		<g transform="translate(31.512 2.054)">
			<path class="st5" d="M115.95,47.09h46.52c0.42,0,0.77,0.34,0.77,0.77v2.92c0,0.42-0.34,0.77-0.77,0.77h-46.52
				c-0.42,0-0.77-0.34-0.77-0.77v-2.92C115.18,47.43,115.52,47.09,115.95,47.09z"/>
			<path class="st5" d="M115.95,56h165.63c0.42,0,0.77,0.34,0.77,0.77v0.69c0,0.42-0.34,0.77-0.77,0.77H115.95
				c-0.42,0-0.77-0.34-0.77-0.77v-0.69C115.18,56.34,115.52,56,115.95,56z"/>
			<path class="st5" d="M115.95,60.46h151.7c0.42,0,0.77,0.34,0.77,0.77v0.69c0,0.42-0.34,0.77-0.77,0.77h-151.7
				c-0.42,0-0.77-0.34-0.77-0.77v-0.69C115.18,60.8,115.52,60.46,115.95,60.46z"/>
			<path class="st5" d="M115.95,64.91h137.77c0.42,0,0.77,0.34,0.77,0.77v0.69c0,0.42-0.34,0.77-0.77,0.77H115.95
				c-0.42,0-0.77-0.34-0.77-0.77v-0.69C115.18,65.25,115.52,64.91,115.95,64.91z"/>
		</g>
	</g>
	<g transform="translate(505.709 317.864)">
		
			<linearGradient id="SVGID_00000159459112311189654400000016288380454726779316_" gradientUnits="userSpaceOnUse" x1="-154.2391" y1="191.782" x2="-153.4926" y2="190.0522" gradientTransform="matrix(20.552 0 0 -20.542 3282.7166 4001.0569)">
			<stop  offset="0" style="stop-color:#FAD961"/>
			<stop  offset="1" style="stop-color:#FF52C1"/>
		</linearGradient>
		
			<ellipse style="fill-rule:evenodd;clip-rule:evenodd;fill:url(#SVGID_00000159459112311189654400000016288380454726779316_);" cx="120.78" cy="79.97" rx="12.54" ry="12.53"/>
		<g transform="translate(31.512 2.054)">
			<path class="st5" d="M115.95,67.89h46.52c0.42,0,0.77,0.34,0.77,0.77v2.92c0,0.42-0.34,0.77-0.77,0.77h-46.52
				c-0.42,0-0.77-0.34-0.77-0.77v-2.92C115.18,68.23,115.52,67.89,115.95,67.89z"/>
			<path class="st5" d="M115.95,76.8h165.63c0.42,0,0.77,0.34,0.77,0.77v0.69c0,0.42-0.34,0.77-0.77,0.77H115.95
				c-0.42,0-0.77-0.34-0.77-0.77v-0.69C115.18,77.15,115.52,76.8,115.95,76.8z"/>
			<path class="st5" d="M115.95,81.26h151.7c0.42,0,0.77,0.34,0.77,0.77v0.69c0,0.42-0.34,0.77-0.77,0.77h-151.7
				c-0.42,0-0.77-0.34-0.77-0.77v-0.69C115.18,81.6,115.52,81.26,115.95,81.26z"/>
			<path class="st5" d="M115.95,85.71h137.77c0.42,0,0.77,0.34,0.77,0.77v0.69c0,0.42-0.34,0.77-0.77,0.77H115.95
				c-0.42,0-0.77-0.34-0.77-0.77v-0.69C115.18,86.06,115.52,85.71,115.95,85.71z"/>
		</g>
	</g>
	<g transform="translate(505.709 254.87)">
		<g transform="translate(31.512 2.054)">
			<path class="st5" d="M115.95,54.02h46.52c0.42,0,0.77,0.34,0.77,0.77v2.92c0,0.42-0.34,0.77-0.77,0.77h-46.52
				c-0.42,0-0.77-0.34-0.77-0.77v-2.92C115.18,54.37,115.52,54.02,115.95,54.02z"/>
			<path class="st5" d="M115.95,62.93h165.63c0.42,0,0.77,0.34,0.77,0.77v0.69c0,0.42-0.34,0.77-0.77,0.77H115.95
				c-0.42,0-0.77-0.34-0.77-0.77V63.7C115.18,63.28,115.52,62.93,115.95,62.93z"/>
			<path class="st5" d="M115.95,67.39h151.7c0.42,0,0.77,0.34,0.77,0.77v0.69c0,0.42-0.34,0.77-0.77,0.77h-151.7
				c-0.42,0-0.77-0.34-0.77-0.77v-0.69C115.18,67.73,115.52,67.39,115.95,67.39z"/>
			<path class="st5" d="M115.95,71.84h137.77c0.42,0,0.77,0.34,0.77,0.77v0.69c0,0.42-0.34,0.77-0.77,0.77H115.95
				c-0.42,0-0.77-0.34-0.77-0.77v-0.69C115.18,72.19,115.52,71.84,115.95,71.84z"/>
		</g>
		
			<linearGradient id="SVGID_00000138545382095683966370000004572261033775934130_" gradientUnits="userSpaceOnUse" x1="-153.8505" y1="255.1607" x2="-153.8505" y2="253.9405" gradientTransform="matrix(20.552 0 0 -20.542 3282.7166 5295.0801)">
			<stop  offset="0" style="stop-color:#00C7FA"/>
			<stop  offset="1" style="stop-color:#007DFA"/>
		</linearGradient>
		
			<ellipse style="fill-rule:evenodd;clip-rule:evenodd;fill:url(#SVGID_00000138545382095683966370000004572261033775934130_);" cx="120.78" cy="66.1" rx="12.54" ry="12.53"/>
	</g>
	<g transform="translate(505.709 349.361)">
		<g transform="translate(31.512 2.054)">
			<path class="st5" d="M115.95,74.82h46.52c0.42,0,0.77,0.34,0.77,0.77v2.92c0,0.42-0.34,0.77-0.77,0.77h-46.52
				c-0.42,0-0.77-0.34-0.77-0.77v-2.92C115.18,75.17,115.52,74.82,115.95,74.82z"/>
			<path class="st5" d="M115.95,83.74h165.63c0.42,0,0.77,0.34,0.77,0.77v0.69c0,0.42-0.34,0.77-0.77,0.77H115.95
				c-0.42,0-0.77-0.34-0.77-0.77V84.5C115.18,84.08,115.52,83.74,115.95,83.74z"/>
			<path class="st5" d="M115.95,88.19h151.7c0.42,0,0.77,0.34,0.77,0.77v0.69c0,0.42-0.34,0.77-0.77,0.77h-151.7
				c-0.42,0-0.77-0.34-0.77-0.77v-0.69C115.18,88.54,115.52,88.19,115.95,88.19z"/>
			<path class="st5" d="M115.95,92.65h137.77c0.42,0,0.77,0.34,0.77,0.77v0.69c0,0.42-0.34,0.77-0.77,0.77H115.95
				c-0.42,0-0.77-0.34-0.77-0.77v-0.69C115.18,92.99,115.52,92.65,115.95,92.65z"/>
		</g>
		
			<linearGradient id="SVGID_00000057845392683859336060000008476562223829122450_" gradientUnits="userSpaceOnUse" x1="-153.8505" y1="159.657" x2="-153.8505" y2="158.4368" gradientTransform="matrix(20.552 0 0 -20.542 3282.7166 3354.0459)">
			<stop  offset="0" style="stop-color:#00C7FA"/>
			<stop  offset="1" style="stop-color:#007DFA"/>
		</linearGradient>
		
			<ellipse style="fill-rule:evenodd;clip-rule:evenodd;fill:url(#SVGID_00000057845392683859336060000008476562223829122450_);" cx="120.78" cy="86.9" rx="12.54" ry="12.53"/>
	</g>
	<g transform="translate(505.709 286.367)">
		<g transform="translate(31.512 2.054)">
			<path class="st5" d="M115.95,60.96h46.52c0.42,0,0.77,0.34,0.77,0.77v2.92c0,0.42-0.34,0.77-0.77,0.77h-46.52
				c-0.42,0-0.77-0.34-0.77-0.77v-2.92C115.18,61.3,115.52,60.96,115.95,60.96z"/>
			<path class="st5" d="M115.95,69.87h165.63c0.42,0,0.77,0.34,0.77,0.77v0.69c0,0.42-0.34,0.77-0.77,0.77H115.95
				c-0.42,0-0.77-0.34-0.77-0.77v-0.69C115.18,70.21,115.52,69.87,115.95,69.87z"/>
			<path class="st5" d="M115.95,74.32h151.7c0.42,0,0.77,0.34,0.77,0.77v0.69c0,0.42-0.34,0.77-0.77,0.77h-151.7
				c-0.42,0-0.77-0.34-0.77-0.77v-0.69C115.18,74.67,115.52,74.32,115.95,74.32z"/>
			<path class="st5" d="M115.95,78.78h137.77c0.42,0,0.77,0.34,0.77,0.77v0.69c0,0.42-0.34,0.77-0.77,0.77H115.95
				c-0.42,0-0.77-0.34-0.77-0.77v-0.69C115.18,79.12,115.52,78.78,115.95,78.78z"/>
		</g>
		
			<linearGradient id="SVGID_00000131355799304450651190000004213495993860993449_" gradientUnits="userSpaceOnUse" x1="-154.1679" y1="223.2926" x2="-153.4208" y2="221.9353" gradientTransform="matrix(20.552 0 0 -20.542 3282.7166 4648.0684)">
			<stop  offset="0" style="stop-color:#FF52C1"/>
			<stop  offset="1" style="stop-color:#9952FF"/>
		</linearGradient>
		
			<ellipse style="fill-rule:evenodd;clip-rule:evenodd;fill:url(#SVGID_00000131355799304450651190000004213495993860993449_);" cx="120.78" cy="73.04" rx="12.54" ry="12.53"/>
	</g>
	<g transform="translate(505.709 380.858)">
		<g transform="translate(31.512 2.054)">
			<path class="st5" d="M115.95,81.76h46.52c0.42,0,0.77,0.34,0.77,0.77v2.92c0,0.42-0.34,0.77-0.77,0.77h-46.52
				c-0.42,0-0.77-0.34-0.77-0.77v-2.92C115.18,82.1,115.52,81.76,115.95,81.76z"/>
			<path class="st5" d="M115.95,90.67h165.63c0.42,0,0.77,0.34,0.77,0.77v0.69c0,0.42-0.34,0.77-0.77,0.77H115.95
				c-0.42,0-0.77-0.34-0.77-0.77v-0.69C115.18,91.01,115.52,90.67,115.95,90.67z"/>
			<path class="st5" d="M115.95,95.13h151.7c0.42,0,0.77,0.34,0.77,0.77v0.69c0,0.42-0.34,0.77-0.77,0.77h-151.7
				c-0.42,0-0.77-0.34-0.77-0.77v-0.69C115.18,95.47,115.52,95.13,115.95,95.13z"/>
			<path class="st5" d="M115.95,99.58h137.77c0.42,0,0.77,0.34,0.77,0.77v0.69c0,0.42-0.34,0.77-0.77,0.77H115.95
				c-0.42,0-0.77-0.34-0.77-0.77v-0.69C115.18,99.93,115.52,99.58,115.95,99.58z"/>
		</g>
		
			<linearGradient id="SVGID_00000168104676908288560270000005186073733195895460_" gradientUnits="userSpaceOnUse" x1="-154.1679" y1="127.789" x2="-153.4208" y2="126.4316" gradientTransform="matrix(20.552 0 0 -20.542 3282.7166 2707.0344)">
			<stop  offset="0" style="stop-color:#FF52C1"/>
			<stop  offset="1" style="stop-color:#9952FF"/>
		</linearGradient>
		
			<ellipse style="fill-rule:evenodd;clip-rule:evenodd;fill:url(#SVGID_00000168104676908288560270000005186073733195895460_);" cx="120.78" cy="93.84" rx="12.54" ry="12.53"/>
	</g>
	<g transform="translate(505.709 412.356)">
		
			<linearGradient id="SVGID_00000104707275347121594460000006550575407460419003_" gradientUnits="userSpaceOnUse" x1="-154.2391" y1="96.2773" x2="-153.4926" y2="94.5475" gradientTransform="matrix(20.552 0 0 -20.542 3282.7166 2060.0027)">
			<stop  offset="0" style="stop-color:#FAD961"/>
			<stop  offset="1" style="stop-color:#FF52C1"/>
		</linearGradient>
		
			<ellipse style="fill-rule:evenodd;clip-rule:evenodd;fill:url(#SVGID_00000104707275347121594460000006550575407460419003_);" cx="120.78" cy="100.77" rx="12.54" ry="12.53"/>
		<g transform="translate(31.512 2.054)">
			<path class="st5" d="M115.95,88.69h46.52c0.42,0,0.77,0.34,0.77,0.77v2.92c0,0.42-0.34,0.77-0.77,0.77h-46.52
				c-0.42,0-0.77-0.34-0.77-0.77v-2.92C115.18,89.04,115.52,88.69,115.95,88.69z"/>
			<path class="st5" d="M115.95,97.6h165.63c0.42,0,0.77,0.34,0.77,0.77v0.69c0,0.42-0.34,0.77-0.77,0.77H115.95
				c-0.42,0-0.77-0.34-0.77-0.77v-0.69C115.18,97.95,115.52,97.6,115.95,97.6z"/>
			<path class="st5" d="M115.95,102.06h151.7c0.42,0,0.77,0.34,0.77,0.77v0.69c0,0.42-0.34,0.77-0.77,0.77h-151.7
				c-0.42,0-0.77-0.34-0.77-0.77v-0.69C115.18,102.4,115.52,102.06,115.95,102.06z"/>
			<path class="st5" d="M115.95,106.52h137.77c0.42,0,0.77,0.34,0.77,0.77v0.69c0,0.42-0.34,0.77-0.77,0.77H115.95
				c-0.42,0-0.77-0.34-0.77-0.77v-0.69C115.18,106.86,115.52,106.52,115.95,106.52z"/>
		</g>
	</g>
	<g transform="translate(505.709 443.853)">
		<g transform="translate(31.512 2.054)">
			<path class="st5" d="M115.95,95.63h46.52c0.42,0,0.77,0.34,0.77,0.77v2.92c0,0.42-0.34,0.77-0.77,0.77h-46.52
				c-0.42,0-0.77-0.34-0.77-0.77V96.4C115.18,95.97,115.52,95.63,115.95,95.63z"/>
			<path class="st5" d="M115.95,104.54h165.63c0.42,0,0.77,0.34,0.77,0.77V106c0,0.42-0.34,0.77-0.77,0.77H115.95
				c-0.42,0-0.77-0.34-0.77-0.77v-0.69C115.18,104.88,115.52,104.54,115.95,104.54z"/>
			<path class="st5" d="M115.95,108.99h151.7c0.42,0,0.77,0.34,0.77,0.77v0.69c0,0.42-0.34,0.77-0.77,0.77h-151.7
				c-0.42,0-0.77-0.34-0.77-0.77v-0.69C115.18,109.34,115.52,108.99,115.95,108.99z"/>
			<path class="st5" d="M115.95,113.45h137.77c0.42,0,0.77,0.34,0.77,0.77v0.69c0,0.42-0.34,0.77-0.77,0.77H115.95
				c-0.42,0-0.77-0.34-0.77-0.77v-0.69C115.18,113.79,115.52,113.45,115.95,113.45z"/>
		</g>
		
			<linearGradient id="SVGID_00000056394461917965449970000003868458038648416951_" gradientUnits="userSpaceOnUse" x1="-153.8505" y1="64.1523" x2="-153.8505" y2="62.9322" gradientTransform="matrix(20.552 0 0 -20.542 3282.7166 1412.9912)">
			<stop  offset="0" style="stop-color:#00C7FA"/>
			<stop  offset="1" style="stop-color:#007DFA"/>
		</linearGradient>
		
			<ellipse style="fill-rule:evenodd;clip-rule:evenodd;fill:url(#SVGID_00000056394461917965449970000003868458038648416951_);" cx="120.78" cy="107.71" rx="12.54" ry="12.53"/>
	</g>
</g>
</svg>
