<?xml version="1.0" encoding="utf-8"?>
<!-- Generator: Adobe Illustrator 26.5.0, SVG Export Plug-In . SVG Version: 6.00 Build 0)  -->
<svg version="1.1" id="Layer_1" xmlns="http://www.w3.org/2000/svg" xmlns:xlink="http://www.w3.org/1999/xlink" x="0px" y="0px"
	 viewBox="0 0 283.46 283.46" style="enable-background:new 0 0 283.46 283.46;" xml:space="preserve">
<style type="text/css">
	.st0{fill:#FFFFFF;}
</style>
<g>
	<path class="st0" d="M141.73,12.9C70.69,12.9,12.9,70.69,12.9,141.73s57.79,128.83,128.83,128.83
		c71.04,0,128.83-57.79,128.83-128.83S212.77,12.9,141.73,12.9z M141.73,262.56c-66.63,0-120.83-54.2-120.83-120.83
		S75.1,20.9,141.73,20.9c66.63,0,120.83,54.2,120.83,120.83S208.36,262.56,141.73,262.56z"/>
	<path class="st0" d="M196.99,112.66c-1.14-8.04-4.89-14.72-11.15-19.9c-5.71-4.74-12.36-7.23-19.76-7.36
		c-8.35-0.15-16.72-0.04-25.07-0.04c0-0.09,0-0.17,0-0.24c-5.87,0-11.75-0.13-17.62,0.03c-6.01,0.16-12.07,0.02-17.87,2.25
		c-11.05,4.24-18.04,12.01-20.23,23.67c-0.85,4.57-1.03,9.31-1.04,13.98c-0.02,14.23,0.02,28.47,0.4,42.69
		c0.25,9.2,3.81,17.1,11,23.12c5.22,4.37,11.26,7.01,18.04,7.27c11.9,0.44,23.82,0.68,35.73,0.67c7.16-0.01,14.41-0.03,21.45-1.1
		c12.6-1.91,20.86-9.49,25.01-21.53c1.63-4.73,1.74-9.67,1.78-14.57c0.11-13.16,0.08-26.33,0.01-39.49
		C197.66,118.95,197.43,115.78,196.99,112.66z M187.25,165.42c-0.2,4.7-0.91,9.33-3.59,13.4c-3.86,5.88-9.55,8.69-16.34,9.2
		c-16.41,1.24-32.83,0.95-49.26,0.31c-4.68-0.18-9.36-0.76-13.49-3.31c-5.84-3.61-9.22-8.95-9.5-15.72
		c-0.54-12.86-0.74-25.73-0.85-38.59c-0.04-5.4,0.32-10.83,0.81-16.22c0.7-7.74,4.51-13.71,11.74-16.67
		c3.61-1.48,7.77-2.17,11.7-2.24c15.01-0.26,30.03-0.22,45.04-0.03c4.89,0.06,9.79,0.74,14.11,3.52c5.81,3.74,8.82,9.2,9.26,15.91
		c0.61,9,0.81,18.03,1.1,24.97C187.72,149.85,187.6,157.64,187.25,165.42z"/>
	<path class="st0" d="M140.91,112.81c-15.95,0.09-29.12,12.69-29.13,29.09c-0.01,16.53,13.29,29.14,29.23,29.15
		c16.07,0.01,29.05-13.13,29-29.17C169.96,125.8,156.94,112.72,140.91,112.81z M159.91,143.01c-0.48,10.23-9.31,18.84-20.57,17.9
		c-11.25-0.94-18.07-10.57-17.44-19.89c0.76-11.21,9.91-19.05,20.62-18.07C152.89,123.89,160.78,132.99,159.91,143.01z"/>
	<path class="st0" d="M171.54,104.93c-3.89-0.06-6.88,2.68-6.92,6.33c-0.05,3.72,2.95,6.82,6.68,6.91c3.62,0.09,6.77-3.02,6.82-6.76
		C178.16,107.78,175.33,104.98,171.54,104.93z"/>
</g>
</svg>
