<?xml version="1.0" encoding="utf-8"?>
<!-- Generator: Adobe Illustrator 26.5.0, SVG Export Plug-In . SVG Version: 6.00 Build 0)  -->
<svg version="1.1" id="Layer_1" xmlns="http://www.w3.org/2000/svg" xmlns:xlink="http://www.w3.org/1999/xlink" x="0px" y="0px"
	 viewBox="0 0 283.46 283.46" style="enable-background:new 0 0 283.46 283.46;" xml:space="preserve">
<style type="text/css">
	.st0{fill:#FFFFFF;}
</style>
<g>
	<path class="st0" d="M183.6,111.87c4.22-2.92,7.2-6.72,9.03-11.86c-4.07,2.39-8.15,3.83-12.39,4.87c-1.11,0.28-1.86,0.15-2.72-0.68
		c-5.21-5-11.56-6.65-18.53-5.56c-12.15,1.9-19.51,12.82-18.25,24.72c0.07,0.67,0.09,1.36,0.13,2.1
		c-18.5-1.31-33.52-9.1-45.49-23.09c-2.04,3.67-3.28,7.43-3.08,11.42c0.37,7.41,3.53,13.48,9.87,18.19c-3.77-0.23-6.88-1.25-10-2.89
		c0.77,11.45,6.35,18.81,17.27,22.02c-0.03,0.15-0.07,0.29-0.11,0.44c-3.01,0-6.04,0-9.32,0c3.69,9.65,10.51,14.46,20.56,15.29
		c-9.56,7.57-20.3,10.06-32.08,9.65c0.11,0.06,0.23,0.13,0.37,0.16c10.36,6.45,21.72,9.3,33.83,9.22
		c6.43-0.04,12.76-1.11,18.94-2.99c11.14-3.4,20.16-9.98,27.74-18.64c4.23-4.83,7.39-10.35,9.98-16.22
		c3.8-8.63,5.65-17.63,5.37-27.07c-0.02-0.5,0.3-1.14,0.68-1.49c1.54-1.44,3.26-2.69,4.72-4.2c1.86-1.93,3.51-4.04,5.26-6.07
		c-0.1-0.12-0.19-0.24-0.29-0.36C191.42,110.42,187.64,111.58,183.6,111.87z"/>
	<path class="st0" d="M141.93,13.3C70.89,13.3,13.1,71.09,13.1,142.13c0,71.04,57.79,128.83,128.83,128.83
		c71.04,0,128.83-57.79,128.83-128.83C270.76,71.09,212.97,13.3,141.93,13.3z M141.93,262.96c-66.63,0-120.83-54.2-120.83-120.83
		C21.1,75.5,75.3,21.3,141.93,21.3c66.63,0,120.83,54.2,120.83,120.83C262.76,208.76,208.56,262.96,141.93,262.96z"/>
</g>
</svg>
